name C:\Users\u0101727\Documents\MyRepositories\upper-imu-dc\OpenSim\subject0\MA\MA_Splines\angle_in_n6_dof6_4.mot
datacolumns 7
datarows 40
range 400.01000000 400.40000000
endheader 
time	clav_prot	clav_elev	scapula_abduction	scapula_elevation	scapula_upward_rot	scapula_winging	
        400.01000000	        -22.39390379	         -7.65248351	        -22.45226073	          7.08700750	          8.23102828	          6.73993887	
        400.02000000	        -16.90593547	         -7.65248351	        -22.45226073	          7.08700750	          8.23102828	          6.73993887	
        400.03000000	        -44.34577705	         -2.74924671	        -22.45226073	          7.08700750	          8.23102828	          6.73993887	
        400.04000000	        -38.85780873	         -2.74924671	        -22.45226073	          7.08700750	          8.23102828	          6.73993887	
        400.05000000	        -33.36984042	         -2.74924671	        -22.45226073	          7.08700750	          8.23102828	          6.73993887	
        400.06000000	        -27.88187210	         -2.74924671	        -22.45226073	          7.08700750	          8.23102828	          6.73993887	
        400.07000000	        -22.39390379	         -2.74924671	        -22.45226073	          7.08700750	          8.23102828	          6.73993887	
        400.08000000	        -16.90593547	         -2.74924671	        -22.45226073	          7.08700750	          8.23102828	          6.73993887	
        400.09000000	        -44.34577705	          2.15399008	        -22.45226073	          7.08700750	          8.23102828	          6.73993887	
        400.10000000	        -38.85780873	          2.15399008	        -22.45226073	          7.08700750	          8.23102828	          6.73993887	
        400.11000000	        -33.36984042	          2.15399008	        -22.45226073	          7.08700750	          8.23102828	          6.73993887	
        400.12000000	        -27.88187210	          2.15399008	        -22.45226073	          7.08700750	          8.23102828	          6.73993887	
        400.13000000	        -22.39390379	          2.15399008	        -22.45226073	          7.08700750	          8.23102828	          6.73993887	
        400.14000000	        -16.90593547	          2.15399008	        -22.45226073	          7.08700750	          8.23102828	          6.73993887	
        400.15000000	        -44.34577705	          7.05722688	        -22.45226073	          7.08700750	          8.23102828	          6.73993887	
        400.16000000	        -38.85780873	          7.05722688	        -22.45226073	          7.08700750	          8.23102828	          6.73993887	
        400.17000000	        -33.36984042	          7.05722688	        -22.45226073	          7.08700750	          8.23102828	          6.73993887	
        400.18000000	        -27.88187210	          7.05722688	        -22.45226073	          7.08700750	          8.23102828	          6.73993887	
        400.19000000	        -22.39390379	          7.05722688	        -22.45226073	          7.08700750	          8.23102828	          6.73993887	
        400.20000000	        -16.90593547	          7.05722688	        -22.45226073	          7.08700750	          8.23102828	          6.73993887	
        400.21000000	        -44.34577705	         11.96046367	        -22.45226073	          7.08700750	          8.23102828	          6.73993887	
        400.22000000	        -38.85780873	         11.96046367	        -22.45226073	          7.08700750	          8.23102828	          6.73993887	
        400.23000000	        -33.36984042	         11.96046367	        -22.45226073	          7.08700750	          8.23102828	          6.73993887	
        400.24000000	        -27.88187210	         11.96046367	        -22.45226073	          7.08700750	          8.23102828	          6.73993887	
        400.25000000	        -22.39390379	         11.96046367	        -22.45226073	          7.08700750	          8.23102828	          6.73993887	
        400.26000000	        -16.90593547	         11.96046367	        -22.45226073	          7.08700750	          8.23102828	          6.73993887	
        400.27000000	        -44.34577705	         16.86370047	        -22.45226073	          7.08700750	          8.23102828	          6.73993887	
        400.28000000	        -38.85780873	         16.86370047	        -22.45226073	          7.08700750	          8.23102828	          6.73993887	
        400.29000000	        -33.36984042	         16.86370047	        -22.45226073	          7.08700750	          8.23102828	          6.73993887	
        400.30000000	        -27.88187210	         16.86370047	        -22.45226073	          7.08700750	          8.23102828	          6.73993887	
        400.31000000	        -22.39390379	         16.86370047	        -22.45226073	          7.08700750	          8.23102828	          6.73993887	
        400.32000000	        -16.90593547	         16.86370047	        -22.45226073	          7.08700750	          8.23102828	          6.73993887	
        400.33000000	        -44.34577705	         -7.65248351	        -14.01721834	          7.08700750	          8.23102828	          6.73993887	
        400.34000000	        -38.85780873	         -7.65248351	        -14.01721834	          7.08700750	          8.23102828	          6.73993887	
        400.35000000	        -33.36984042	         -7.65248351	        -14.01721834	          7.08700750	          8.23102828	          6.73993887	
        400.36000000	        -27.88187210	         -7.65248351	        -14.01721834	          7.08700750	          8.23102828	          6.73993887	
        400.37000000	        -22.39390379	         -7.65248351	        -14.01721834	          7.08700750	          8.23102828	          6.73993887	
        400.38000000	        -16.90593547	         -7.65248351	        -14.01721834	          7.08700750	          8.23102828	          6.73993887	
        400.39000000	        -44.34577705	         -2.74924671	        -14.01721834	          7.08700750	          8.23102828	          6.73993887	
        400.40000000	        -38.85780873	         -2.74924671	        -14.01721834	          7.08700750	          8.23102828	          6.73993887	
